<svg width="16px" height="16px" viewBox="0 0 264.58333 264.58334" version="1.1" id="svg15" inkscape:version="1.1.2 (0a00cf5339, 2022-02-04)" sodipodi:docname="thezodiacox_vector_logo.svg" xmlns:inkscape="http://www.inkscape.org/namespaces/inkscape" xmlns:sodipodi="http://sodipodi.sourceforge.net/DTD/sodipodi-0.dtd" xmlns="http://www.w3.org/2000/svg" xmlns:svg="http://www.w3.org/2000/svg" xmlns:rdf="http://www.w3.org/1999/02/22-rdf-syntax-ns#" xmlns:cc="http://creativecommons.org/ns#" xmlns:dc="http://purl.org/dc/elements/1.1/" fill="currentColor"><sodipodi:namedview id="namedview17" pagecolor="#ffffff" bordercolor="#999999" borderopacity="1" inkscape:pageshadow="0" inkscape:pageopacity="0" inkscape:pagecheckerboard="0" inkscape:document-units="mm" showgrid="false" units="px" inkscape:zoom="0.35355339" inkscape:cx="473.76154" inkscape:cy="448.3057" inkscape:window-width="1360" inkscape:window-height="708" inkscape:window-x="0" inkscape:window-y="25" inkscape:window-maximized="1" inkscape:current-layer="layer1"></sodipodi:namedview><defs id="defs12"><clipPath clipPathUnits="userSpaceOnUse" id="clipPath1635"><path style="fill:currentColor;stroke-width:42.4264;paint-order:stroke fill markers" d="M 4.2426407,500.6316 V 4.2426407 H 500.6316 997.02056 V 500.6316 997.02056 H 500.6316 4.2426407 Z" id="path1637"></path></clipPath><clipPath clipPathUnits="userSpaceOnUse" id="clipPath1639"><path style="fill:currentColor;stroke-width:42.4264;paint-order:stroke fill markers" d="M 4.2426407,500.6316 V 4.2426407 H 500.6316 997.02056 V 500.6316 997.02056 H 500.6316 4.2426407 Z" id="path1641"></path></clipPath></defs><g inkscape:label="Capa 1" inkscape:groupmode="layer" id="layer1"><path style="fill:currentColor;stroke-width:42.4264;paint-order:stroke fill markers" d="m 717.65257,791.25249 c 2.3933,-2.72236 7.13431,-10.48277 10.53555,-17.2454 3.40127,-6.7626 14.74935,-26.49857 25.21801,-43.85771 10.46866,-17.35913 19.9679,-33.99602 21.10945,-36.97082 3.02133,-7.87346 52.49151,-92.05023 59.9667,-102.03729 11.53478,-15.4108 24.48584,-43.84062 19.97136,-43.84062 -4.80329,0 -19.87372,13.33374 -87.94989,77.81464 -28.00143,26.52261 -57.7315,54.22986 -66.06682,61.57169 l -15.15517,13.34873 -122.02355,-0.0433 c -68.09014,-0.0255 -123.81609,-1.17762 -126.07912,-2.60965 -4.70045,-2.9744 -1.11281,-7.69612 45.46909,-59.84219 16.11341,-18.03818 54.72936,-61.31312 85.81321,-96.16652 31.08384,-34.85344 65.44923,-72.99164 76.36753,-84.75156 10.91829,-11.75992 31.78501,-35.30658 46.37051,-52.3259 14.58546,-17.01933 37.65748,-43.03574 51.27112,-57.81427 13.61367,-14.77853 30.95433,-34.09516 38.5348,-42.92585 13.54104,-15.77428 63.23003,-72.02159 83.26318,-94.25286 5.6073,-6.22254 22.81509,-25.31443 38.23955,-42.42641 44.54535,-49.41894 49.25765,-54.98926 49.25765,-58.22664 0,-1.68079 -1.22887,-2.63171 -2.73082,-2.11317 -2.89891,1.00084 -55.21146,47.02833 -132.87218,116.90832 -25.93269,23.33453 -71.26143,64.05881 -100.73056,90.49844 -29.46912,26.4396 -61.85337,55.76439 -71.965,65.16623 -10.11163,9.4018 -30.4763,27.79215 -45.25483,40.86743 -14.77853,13.07531 -37.68879,34.23497 -50.91169,47.02153 -20.00479,19.3446 -101.9543,93.632 -231.82377,210.14863 -13.1639,11.81043 -31.61984,28.47386 -41.01318,37.02985 -9.39336,8.55599 -30.6519,27.38673 -47.2412,41.84607 -16.5893,14.45937 -32.20989,29.41468 -34.71243,33.23402 l -4.55007,6.9443 h 262.67055 c 246.61911,0 262.93647,-0.30248 267.02202,-4.94975 z" transform="scale(0.26458333)" id="path800" clip-path="url(#clipPath1639)"></path><path style="fill:currentColor;stroke-width:42.4264;paint-order:stroke fill markers" d="m 63.084226,829.78429 c 5.750184,-5.04017 36.54712,-32.94761 68.437634,-62.01654 52.77024,-48.10128 112.17187,-101.72178 305.64892,-275.90232 36.4591,-32.82282 80.9713,-72.91578 98.91606,-89.09546 17.94476,-16.17967 74.5415,-66.96496 125.77057,-112.85619 110.60287,-99.07857 135.47713,-121.76109 136.59866,-124.56273 1.68387,-4.20628 -101.74588,-5.85777 -313.38082,-5.0038 l -216.37467,0.8731 -7.98805,15.55635 c -4.39342,8.55599 -10.43918,18.18396 -13.43503,21.39549 -2.99584,3.21154 -5.44698,7.34811 -5.44698,9.19239 0,1.84428 -1.09592,3.35324 -2.43538,3.35324 -1.33947,0 -5.47604,6.04576 -9.19239,13.43503 -3.71635,7.38927 -7.63197,14.09733 -8.70138,14.90681 -1.0694,0.80948 -3.35144,4.62785 -5.0712,8.48528 -3.94298,8.84415 -7.42728,14.71645 -20.16789,33.9901 -5.61709,8.49739 -16.43582,27.44851 -24.04163,42.11359 -7.6058,14.66511 -15.8111,28.961 -18.23399,31.76872 -2.4229,2.8077 -8.15047,13.08286 -12.72793,22.83367 -4.57746,9.75083 -9.08671,18.36517 -10.02055,19.14299 -2.09837,1.7478 -8.2016,13.18568 -8.2016,15.37041 0,0.88009 1.73841,1.60015 3.86312,1.60015 4.11514,0 16.92236,-11.19975 96.86321,-84.70556 27.82699,-25.58697 56.58576,-51.99742 63.90838,-58.68986 l 13.31386,-12.16807 119.62222,0.19878 c 112.23648,0.18654 135.5675,1.3877 127.21546,6.54955 -1.83975,1.13702 -12.34701,12.84509 -23.34951,26.0179 -11.0025,13.17286 -22.7771,26.8857 -26.16578,30.47293 -3.38865,3.58727 -13.16158,14.45239 -21.71757,24.1447 -8.55599,9.69232 -20.01112,22.36078 -25.45584,28.15219 -5.44473,5.79143 -17.53625,19.34983 -26.87006,30.12982 -17.64005,20.37327 -72.18514,80.96415 -75.11129,83.43673 -0.92054,0.77782 -8.43654,9.05097 -16.70228,18.38478 -8.26574,9.33381 -20.26334,22.77458 -26.66135,29.86838 -6.39799,7.09381 -18.47498,20.75506 -26.83772,30.35833 -8.36275,9.60333 -18.54509,21.06452 -22.62742,25.46942 -9.19545,9.92198 -21.4756,23.72915 -47.0204,52.86735 -10.88945,12.42127 -21.07178,23.99618 -22.62742,25.72209 -1.55563,1.7259 -10.00911,11.28819 -18.78551,21.24957 -8.77639,9.96138 -19.59513,22.02494 -24.04163,26.80786 -15.32203,16.48136 -33.57392,36.96525 -46.268314,51.92633 -13.737365,16.19032 -20.34788,23.64922 -36.514587,41.20077 -5.73157,6.22254 -13.344712,15.49692 -16.918093,20.60973 l -6.497058,9.29599 7.489174,-1.35804 c 4.119047,-0.74693 12.193873,-5.4818 17.944054,-10.52197 z" transform="scale(0.26458333)" id="path798" clip-path="url(#clipPath1635)"></path></g><metadata id="metadata311"><rdf:rdf><cc:work rdf:about=""><dc:title>Logo Z</dc:title><dc:rights><cc:agent><dc:title>TheZodiacoX</dc:title></cc:agent></dc:rights><dc:publisher><cc:agent><dc:title>TheZodiacoX</dc:title></cc:agent></dc:publisher><dc:creator><cc:agent><dc:title>TheZodiacoX</dc:title></cc:agent></dc:creator></cc:work></rdf:rdf></metadata></svg>